nColumns=28
nRows=33
DataType=double
version=3
OpenSimVersion=4.1
endheader
time	ground_force_1_vx	ground_force_1_vy	ground_force_1_vz	ground_force_1_px	ground_force_1_py	ground_force_1_pz	ground_force_1_mx	ground_force_1_my	ground_force_1_mz	ground_force_2_vx	ground_force_2_vy	ground_force_2_vz	ground_force_2_px	ground_force_2_py	ground_force_2_pz	ground_force_2_mx	ground_force_2_my	ground_force_2_mz	ground_force_3_vx	ground_force_3_vy	ground_force_3_vz	ground_force_3_px	ground_force_3_py	ground_force_3_pz	ground_force_3_mx	ground_force_3_my	ground_force_3_mz
6.44	-3.30054	350.182	2.64755	-0.233447	0.006	-0.414774	0	-7.12754	0	-7.94727	318.973	-7.22003	-0.226642	0.006	-0.756956	0	8.1686	0	0	0	0	0	0	0	0	0	0
6.45	-3.1345	348.388	2.7027	-0.233438	0.006	-0.414784	0	-7.1217	0	-8.08017	317.125	-6.99498	-0.226528	0.006	-0.757044	0	8.17604	0	0	0	0	0	0	0	0	0	0
6.46	-2.98274	346.449	2.72034	-0.233463	0.006	-0.414802	0	-7.10581	0	-8.19128	315.116	-6.75547	-0.226443	0.006	-0.757126	0	8.17321	0	0	0	0	0	0	0	0	0	0
6.47	-2.85231	344.374	2.7064	-0.23352	0.006	-0.414829	0	-7.07885	0	-8.27792	312.969	-6.51053	-0.226389	0.006	-0.757198	0	8.15926	0	0	0	0	0	0	0	0	0	0
6.48	-2.74268	342.182	2.66909	-0.233609	0.006	-0.414863	0	-7.04022	0	-8.33747	310.714	-6.26829	-0.226368	0.006	-0.757255	0	8.13377	0	0	0	0	0	0	0	0	0	0
6.49	-2.64621	339.899	2.61681	-0.233733	0.006	-0.414904	0	-6.98983	0	-8.36709	308.392	-6.03495	-0.226385	0.006	-0.757291	0	8.0969	0	0	0	0	0	0	0	0	0	0
6.5	-2.55085	337.556	2.55684	-0.233897	0.006	-0.414955	0	-6.92806	0	-8.36332	306.055	-5.81443	-0.226445	0.006	-0.757304	0	8.04931	0	0	0	0	0	0	0	0	0	0
6.51	-2.44376	335.184	2.49471	-0.234106	0.006	-0.415014	0	-6.85584	0	-8.32175	303.76	-5.60877	-0.226555	0.006	-0.757293	0	7.99209	0	0	0	0	0	0	0	0	0	0
6.52	-2.3137	332.816	2.43441	-0.234362	0.006	-0.415084	0	-6.7745	0	-8.23714	301.57	-5.4185	-0.226721	0.006	-0.757256	0	7.92659	0	0	0	0	0	0	0	0	0	0
6.53	-2.15192	330.48	2.37755	-0.234667	0.006	-0.415163	0	-6.68564	0	-8.10412	299.539	-5.24203	-0.226948	0.006	-0.757196	0	7.85434	0	0	0	0	0	0	0	0	0	0
6.54	-1.95275	328.203	2.32277	-0.235019	0.006	-0.415252	0	-6.59102	0	-7.91902	297.715	-5.07509	-0.227237	0.006	-0.757114	0	7.77699	0	0	0	0	0	0	0	0	0	0
6.55	-1.71417	326.007	2.26655	-0.235415	0.006	-0.415349	0	-6.49239	0	-7.68118	296.129	-4.91054	-0.227587	0.006	-0.757016	0	7.69607	0	0	0	0	0	0	0	0	0	0
6.56	-1.43717	323.91	2.20449	-0.235848	0.006	-0.415451	0	-6.39141	0	-7.39275	294.803	-4.73875	-0.227994	0.006	-0.756906	0	7.61306	0	0	0	0	0	0	0	0	0	0
6.57	-1.12415	321.926	2.13202	-0.236312	0.006	-0.415557	0	-6.28976	0	-7.05825	293.751	-4.54834	-0.22845	0.006	-0.756792	0	7.52933	0	0	0	0	0	0	0	0	0	0
6.58	-0.778257	320.07	2.04495	-0.236798	0.006	-0.415663	0	-6.18906	0	-6.68486	292.973	-4.32711	-0.228945	0.006	-0.756681	0	7.44608	0	0	0	0	0	0	0	0	0	0
6.59	-0.404174	318.36	1.93917	-0.2373	0.006	-0.415766	0	-6.09097	0	-6.28348	292.462	-4.06302	-0.229468	0.006	-0.756579	0	7.36424	0	0	0	0	0	0	0	0	0	0
6.6	-0.00869593	316.816	1.81095	-0.23781	0.006	-0.415867	0	-5.9971	0	-5.86849	292.195	-3.74599	-0.230004	0.006	-0.75649	0	7.28451	0	0	0	0	0	0	0	0	0	0
6.61	0.399821	315.459	1.65654	-0.238321	0.006	-0.415963	0	-5.90871	0	-5.45579	292.145	-3.36933	-0.230541	0.006	-0.756419	0	7.20746	0	0	0	0	0	0	0	0	0	0
6.62	0.812257	314.306	1.47096	-0.238825	0.006	-0.416056	0	-5.82656	0	-5.06063	292.275	-2.93081	-0.231069	0.006	-0.756368	0	7.13348	0	0	0	0	0	0	0	0	0	0
6.63	1.21954	313.366	1.24754	-0.239319	0.006	-0.416145	0	-5.75087	0	-4.69566	292.545	-2.43241	-0.231576	0.006	-0.756337	0	7.06267	0	0	0	0	0	0	0	0	0	0
6.64	1.61425	312.641	0.978499	-0.239798	0.006	-0.416231	0	-5.68147	0	-4.36944	292.917	-1.87985	-0.232055	0.006	-0.756327	0	6.99492	0	0	0	0	0	0	0	0	0	0
6.65	1.99104	312.128	0.656387	-0.24026	0.006	-0.416313	0	-5.61768	0	-4.0862	293.354	-1.28232	-0.232499	0.006	-0.756334	0	6.92974	0	0	0	0	0	0	0	0	0	0
6.66	2.34581	311.814	0.275043	-0.240701	0.006	-0.416389	0	-5.55823	0	-3.84686	293.822	-0.651582	-0.232905	0.006	-0.756354	0	6.86616	0	0	0	0	0	0	0	0	0	0
6.67	2.67549	311.681	-0.170113	-0.24112	0.006	-0.416458	0	-5.50138	0	-3.6503	294.288	-0.000679235	-0.233269	0.006	-0.756382	0	6.80312	0	0	0	0	0	0	0	0	0	0
6.68	2.9794	311.709	-0.681931	-0.24152	0.006	-0.416516	0	-5.4453	0	-3.49285	294.724	0.656712	-0.23359	0.006	-0.756413	0	6.73951	0	0	0	0	0	0	0	0	0	0
6.69	3.25984	311.877	-1.26122	-0.241902	0.006	-0.416565	0	-5.38827	0	-3.3683	295.104	1.30722	-0.233874	0.006	-0.756441	0	6.67434	0	0	0	0	0	0	0	0	0	0
6.7	3.5214	312.168	-1.90673	-0.242273	0.006	-0.416604	0	-5.32877	0	-3.2683	295.409	1.93913	-0.234126	0.006	-0.756461	0	6.60689	0	0	0	0	0	0	0	0	0	0
6.71	3.77065	312.566	-2.61599	-0.242639	0.006	-0.416637	0	-5.26542	0	-3.18293	295.625	2.54341	-0.234356	0.006	-0.75647	0	6.53661	0	0	0	0	0	0	0	0	0	0
6.72	4.01289	313.058	-3.38531	-0.243003	0.006	-0.416666	0	-5.197	0	-3.10184	295.74	3.11443	-0.234574	0.006	-0.756464	0	6.46311	0	0	0	0	0	0	0	0	0	0
6.73	4.24951	313.622	-4.20717	-0.243369	0.006	-0.416693	0	-5.12249	0	-3.0162	295.744	3.65026	-0.234788	0.006	-0.756441	0	6.3859	0	0	0	0	0	0	0	0	0	0
6.74	4.47958	314.233	-5.06843	-0.243735	0.006	-0.416722	0	-5.04121	0	-2.92068	295.629	4.15182	-0.235005	0.006	-0.7564	0	6.3045	0	0	0	0	0	0	0	0	0	0
6.75	4.70178	314.864	-5.9498	-0.244101	0.006	-0.416754	0	-4.9527	0	-2.81374	295.388	4.62137	-0.235229	0.006	-0.756342	0	6.21865	0	0	0	0	0	0	0	0	0	0
6.76	4.9157	315.479	-6.82807	-0.244467	0.006	-0.416794	0	-4.85671	0	-2.69623	295.016	5.06166	-0.235461	0.006	-0.756267	0	6.12826	0	0	0	0	0	0	0	0	0	0
